<?xml version="1.0" standalone="no"?><!DOCTYPE svg PUBLIC "-//W3C//DTD SVG 1.1//EN" "http://www.w3.org/Graphics/SVG/1.1/DTD/svg11.dtd"><svg class="icon" width="200px" height="200.00px" viewBox="0 0 1024 1024" version="1.1" xmlns="http://www.w3.org/2000/svg"><path d="M512 917.333333c-8.533333 0-17.066667-4.266667-25.6-8.533333L170.666667 733.866667c-17.066667-8.533333-29.866667-29.866667-29.866667-46.933334V337.066667c4.266667-21.333333 12.8-38.4 29.866667-46.933334l311.466666-174.933333c17.066667-8.533333 38.4-8.533333 55.466667 0L853.333333 290.133333c17.066667 8.533333 29.866667 29.866667 29.866667 46.933334v349.866666c0 21.333333-12.8 38.4-29.866667 46.933334l-311.466666 174.933333c-12.8 4.266667-21.333333 8.533333-29.866667 8.533333z m0-759.466666L196.266667 332.8v354.133333l315.733333 179.2h4.266667l311.466666-174.933333V337.066667l8.533334-25.6-12.8 21.333333L512 157.866667z m0 516.266666c-89.6 0-162.133333-72.533333-166.4-162.133333 0-89.6 72.533333-162.133333 166.4-162.133333 89.6 0 162.133333 72.533333 166.4 162.133333-4.266667 89.6-76.8 162.133333-166.4 162.133333zM401.066667 512c0 59.733333 51.2 110.933333 115.2 110.933333 64 0 110.933333-51.2 115.2-110.933333 0-59.733333-51.2-110.933333-115.2-110.933333-68.266667 0-115.2 51.2-115.2 110.933333z"  /></svg>