<?xml version="1.0" standalone="no"?><!DOCTYPE svg PUBLIC "-//W3C//DTD SVG 1.1//EN" "http://www.w3.org/Graphics/SVG/1.1/DTD/svg11.dtd"><svg t="1619582606287" class="icon" viewBox="0 0 1024 1024" version="1.1" xmlns="http://www.w3.org/2000/svg" p-id="43707" xmlns:xlink="http://www.w3.org/1999/xlink" width="200" height="200"><defs><style type="text/css"></style></defs><path d="M896 145.066667a68.266667 68.266667 0 0 1 67.968 62.037333L964.266667 213.333333v597.333334a68.266667 68.266667 0 0 1-62.037334 67.968L896 878.933333h-213.333333a68.266667 68.266667 0 0 1-67.968-62.037333L614.4 810.666667v-17.066667h-119.466667v44.288l-0.170666 1.877333h65.024a25.6 25.6 0 0 1 4.138666 50.858667l-4.138666 0.341333h-256a25.6 25.6 0 0 1-4.181334-50.858666l4.181334-0.341334h54.741333l-0.128-1.877333V793.6H170.666667a68.266667 68.266667 0 0 1-67.968-62.037333L102.4 725.333333V384A68.266667 68.266667 0 0 1 170.666667 315.733333h443.733333V213.333333a68.266667 68.266667 0 0 1 62.037333-67.968L682.666667 145.066667h213.333333zM443.733333 793.6h-34.133333v44.288l-0.170667 1.877333h34.432l-0.128-1.877333V793.6zM896 196.266667h-213.333333a17.066667 17.066667 0 0 0-16.725334 13.653333L665.6 213.333333v102.4h17.066667a68.266667 68.266667 0 0 1 67.968 62.037334L750.933333 384v341.333333a68.266667 68.266667 0 0 1-68.266666 68.266667h-17.066667v17.066667a17.066667 17.066667 0 0 0 13.653333 16.725333l3.413334 0.341333h213.333333a17.066667 17.066667 0 0 0 16.725333-13.653333L913.066667 810.666667V213.333333a17.066667 17.066667 0 0 0-13.653334-16.725333L896 196.266667z m-196.266667 484.906666H153.6V725.333333a17.066667 17.066667 0 0 0 13.653333 16.725334L170.666667 742.4h512a17.066667 17.066667 0 0 0 17.066666-17.066667v-44.16zM682.666667 366.933333H170.666667a17.066667 17.066667 0 0 0-17.066667 17.066667v245.973333h546.133333V384a17.066667 17.066667 0 0 0-13.653333-16.725333L682.666667 366.933333z m170.666666-115.2a25.6 25.6 0 0 1 4.138667 50.858667L853.333333 302.933333h-128a25.6 25.6 0 0 1-4.138666-50.858666L725.333333 251.733333h128z" p-id="43708"></path></svg>