<?xml version="1.0" standalone="no"?><!DOCTYPE svg PUBLIC "-//W3C//DTD SVG 1.1//EN" "http://www.w3.org/Graphics/SVG/1.1/DTD/svg11.dtd"><svg class="icon" width="200px" height="200.00px" viewBox="0 0 1024 1024" version="1.1" xmlns="http://www.w3.org/2000/svg"><path d="M597.333333 102.4a68.266667 68.266667 0 0 1 67.968 62.037333L665.6 170.666667v319.573333a25.6 25.6 0 0 1-50.858667 4.138667l-0.341333-4.181334V170.666667a17.066667 17.066667 0 0 0-13.653333-16.725334L597.333333 153.6H170.666667a17.066667 17.066667 0 0 0-16.725334 13.653333L153.6 170.666667v682.666666a17.066667 17.066667 0 0 0 13.653333 16.725334L170.666667 870.4h426.666666a25.6 25.6 0 0 1 4.138667 50.858667L597.333333 921.6H170.666667a68.266667 68.266667 0 0 1-67.968-62.037333L102.4 853.333333V170.666667a68.266667 68.266667 0 0 1 62.037333-67.968L170.666667 102.4h426.666666z"  /><path d="M810.666667 230.4a68.266667 68.266667 0 0 1 67.968 62.037333L878.933333 298.666667v170.666666a25.6 25.6 0 0 1-50.858666 4.138667L827.733333 469.333333V298.666667a17.066667 17.066667 0 0 0-13.653333-16.725334L810.666667 281.6h-170.666667a25.6 25.6 0 0 1-4.138667-50.858667L640 230.4h170.666667zM803.669333 511.189333a29.866667 29.866667 0 0 1 20.992 4.181334l71.850667 44.458666c6.101333 3.754667 10.581333 9.344 11.861333 13.482667l1.536 3.84c2.986667 9.045333 1.493333 19.242667-5.845333 28.714667l-2.56 2.645333c-0.554667 0.469333 1.365333 11.306667 7.381333 20.650667 5.376 8.32 11.52 13.354667 10.154667 13.653333l5.461333-1.322667a29.738667 29.738667 0 0 1 25.002667 7.082667l2.602667 2.517333c4.266667 4.565333 6.912 10.368 7.808 18.304l0.085333 2.986667-2.005333 85.333333a32.213333 32.213333 0 0 1-4.864 16.042667l-2.986667 4.010667c-6.485333 7.68-16.597333 11.690667-28.8 9.6l-3.2-0.853334c0.341333 0.085333-6.229333 4.992-10.837333 12.8-6.186667 10.325333-8.405333 20.565333-8.618667 20.352l0.810667 0.938667c7.082667 6.442667 10.666667 15.402667 9.557333 26.453333l-0.938667 4.565334a31.914667 31.914667 0 0 1-11.392 16.213333l-3.114666 1.962667-73.813334 40.917333a32 32 0 0 1-15.658666 3.84l-4.565334-0.298667c-10.368-1.536-19.328-8.362667-23.765333-20.309333l-0.853333-3.242667a41.514667 41.514667 0 0 0-18.602667-3.712c-10.837333 0.213333-19.2 3.2-18.986667 2.517334l-1.621333 5.546666a30.037333 30.037333 0 0 1-19.541333 18.346667l-3.925334 0.981333a32.042667 32.042667 0 0 1-18.048-2.56l-2.986666-1.621333-71.808-44.458667a32 32 0 0 1-11.605334-12.885333l-1.792-4.352c-3.029333-9.088-1.536-19.328 5.802667-28.8l2.56-2.645333c0.554667-0.469333-1.365333-11.306667-7.381333-20.650667-5.376-8.362667-11.52-13.354667-10.154667-13.653333l-5.461333 1.322666a30.037333 30.037333 0 0 1-25.344-7.424l0.426666 0.298667a30.293333 30.293333 0 0 1-10.453333-20.309333l-0.085333-3.456 2.005333-85.333334a32.213333 32.213333 0 0 1 4.949333-16.170666l2.901334-3.968c6.485333-7.594667 16.64-11.605333 28.8-9.514667l3.2 0.853333c-0.384-0.128 6.229333-4.992 10.837333-12.8 3.072-5.12 5.12-10.325333 6.528-14.122666l2.090667-6.229334-4.181334-4.48c-6.016-7.381333-8.106667-16.64-6.144-23.296l0.981334-4.608a29.866667 29.866667 0 0 1 14.421333-17.749333l-2.005333 1.152 2.688-1.706667 0.512-0.128 72.618666-40.234666a32 32 0 0 1 15.658667-3.882667l4.522667 0.341333c10.410667 1.536 19.328 8.362667 23.808 20.309334l0.853333 3.242666c0.085333 0.426667 8.661333 3.882667 18.56 3.712 10.837333-0.213333 19.2-3.2 18.986667-2.517333l1.664-5.717333a29.738667 29.738667 0 0 1 19.968-18.346667l-0.597334 0.213333z m-98.56 47.402667l-50.346666 27.776 0.426666 0.853333c7.68 16.597333 3.498667 36.053333-6.656 55.125334l-3.2 5.717333c-10.794667 18.218667-26.965333 32.426667-45.056 33.792l-1.450666 58.666667c16.213333 1.408 29.482667 12.202667 40.490666 27.52l3.584 5.248c12.842667 19.925333 18.944 43.776 10.624 61.781333l-0.682666 1.152 48.938666 30.378667 2.986667-3.84c10.154667-11.690667 26.24-16.938667 44.586667-18.176l6.186666-0.256c22.570667-0.426667 44.629333 6.656 55.210667 22.613333l50.346667-27.818667-0.426667-0.768c-7.637333-16.597333-3.413333-36.053333 6.698667-55.125333l3.242666-5.717333c10.794667-18.218667 26.922667-32.426667 45.013334-33.834667l1.408-58.666667c-16.128-1.365333-29.44-12.16-40.405334-27.477333l-3.584-5.248c-12.885333-19.968-18.944-43.776-10.666666-61.781333l0.64-1.194667-48.938667-30.336-2.944 3.84c-10.154667 11.690667-26.24 16.938667-44.586667 18.133333l-6.186666 0.298667c-22.528 0.426667-44.629333-6.656-55.253334-22.656z m52.48 87.68l5.973334 0.170667c33.749333 2.56 60.245333 31.658667 60.885333 66.773333a67.072 67.072 0 0 1-66.090667 66.048c-36.522667 0.725333-66.218667-29.738667-66.901333-66.048-0.682667-36.565333 29.738667-66.261333 66.133333-66.944z m0.768 42.666667l-3.925333 0.426666c-11.52 2.005333-20.48 11.904-20.309333 23.04 0.256 13.354667 11.093333 24.448 23.466666 24.234667a24.234667 24.234667 0 0 0 24.234667-23.466667c-0.256-13.354667-11.093333-24.448-23.466667-24.234666zM512 273.066667a25.6 25.6 0 0 1 4.138667 50.858666L512 324.266667H256a25.6 25.6 0 0 1-4.138667-50.858667L256 273.066667h256zM512 443.733333a25.6 25.6 0 0 1 4.138667 50.858667L512 494.933333H256a25.6 25.6 0 0 1-4.138667-50.858666L256 443.733333h256zM512 614.4a25.6 25.6 0 0 1 4.138667 50.858667L512 665.6H256a25.6 25.6 0 0 1-4.138667-50.858667L256 614.4h256z"  /></svg>