<?xml version="1.0" standalone="no"?><!DOCTYPE svg PUBLIC "-//W3C//DTD SVG 1.1//EN" "http://www.w3.org/Graphics/SVG/1.1/DTD/svg11.dtd"><svg class="icon" width="200px" height="200.00px" viewBox="0 0 1024 1024" version="1.1" xmlns="http://www.w3.org/2000/svg"><path d="M256 196.266667A59.733333 59.733333 0 0 0 196.266667 256v512A59.733333 59.733333 0 0 0 256 827.733333h512a59.733333 59.733333 0 0 0 59.733333-59.733333V422.485333a59.733333 59.733333 0 0 0-59.733333-59.733333h-205.568a110.933333 110.933333 0 0 1-86.016-40.832l-84.48-103.68A59.733333 59.733333 0 0 0 345.642667 196.266667H256z m0-51.2h89.6a110.933333 110.933333 0 0 1 86.016 40.832l84.48 103.68a59.733333 59.733333 0 0 0 46.336 21.973333H768a110.933333 110.933333 0 0 1 110.933333 110.933333V768a110.933333 110.933333 0 0 1-110.933333 110.933333H256A110.933333 110.933333 0 0 1 145.066667 768V256A110.933333 110.933333 0 0 1 256 145.066667z"  /><path d="M185.344 552.789333v-51.2H857.6v51.2z"  /></svg>