<?xml version="1.0" standalone="no"?><!DOCTYPE svg PUBLIC "-//W3C//DTD SVG 1.1//EN" "http://www.w3.org/Graphics/SVG/1.1/DTD/svg11.dtd"><svg class="icon" width="200px" height="200.00px" viewBox="0 0 1024 1024" version="1.1" xmlns="http://www.w3.org/2000/svg"><path d="M181.504 496.768a25.6 25.6 0 0 1 45.909333-22.613333c52.992 107.52 121.088 163.84 205.141334 172.373333a25.6 25.6 0 0 1 23.04 25.472v192.981333a25.6 25.6 0 1 1-51.2 0v-170.88c-92.714667-17.706667-167.253333-84.394667-222.890667-197.333333zM886.058667 501.973333a25.6 25.6 0 1 0-45.909334-22.613333c-52.992 107.52-121.088 163.84-205.141333 172.373333a25.6 25.6 0 0 0-23.04 25.472v192.981334a25.6 25.6 0 1 0 51.2 0v-170.837334c92.714667-17.749333 167.253333-84.394667 222.890667-197.376zM807.765333 320.426667c-14.421333 115.2-102.912 214.784-262.272 299.605333a25.6 25.6 0 0 1-26.709333-1.621333C354.645333 503.381333 269.866667 404.906667 266.581333 318.208V317.866667c-3.968-152.32 92.330667-204.8 266.922667-153.6 186.794667-54.698667 286.421333-2.048 274.261333 156.16z m-272.512 246.912c137.173333-75.818667 210.090667-160.426667 221.610667-252.074667 8.917333-116.693333-54.613333-148.906667-215.936-99.84a25.6 25.6 0 0 1-14.933333 0c-149.333333-45.696-211.157333-13.44-208.256 100.949333 2.56 63.573333 74.410667 148.736 217.514666 250.965334z"  /><path d="M573.013333 465.664a25.6 25.6 0 0 1-36.224-36.181333l125.738667-125.994667a25.6 25.6 0 0 1 36.266667 36.138667l-125.738667 126.037333z"  /></svg>