<?xml version="1.0" standalone="no"?><!DOCTYPE svg PUBLIC "-//W3C//DTD SVG 1.1//EN" "http://www.w3.org/Graphics/SVG/1.1/DTD/svg11.dtd"><svg class="icon" width="200px" height="200.00px" viewBox="0 0 1024 1024" version="1.1" xmlns="http://www.w3.org/2000/svg"><path d="M640 102.4a25.6 25.6 0 0 1 25.258667 21.461333L665.6 128l-0.042667 17.024L768 145.066667a110.933333 110.933333 0 0 1 110.72 103.936L878.933333 256v554.666667a110.933333 110.933333 0 0 1-110.933333 110.933333H256A110.933333 110.933333 0 0 1 145.066667 810.666667V256A110.933333 110.933333 0 0 1 256 145.066667l102.357333-0.042667L358.4 128a25.6 25.6 0 0 1 50.858667-4.138667L409.6 128l-0.042667 17.024h204.8L614.4 128a25.6 25.6 0 0 1 25.6-25.6z m187.690667 264.490667h-631.466667L196.266667 810.666667a59.733333 59.733333 0 0 0 53.973333 59.477333L256 870.4h512a59.733333 59.733333 0 0 0 59.733333-59.733333l-0.042666-443.776zM669.866667 657.066667a25.6 25.6 0 0 1 4.138666 50.858666l-4.138666 0.341334h-341.333334a25.6 25.6 0 0 1-4.138666-50.858667L328.533333 657.066667h341.333334z m0-170.666667a25.6 25.6 0 0 1 4.138666 50.858667l-4.138666 0.341333h-341.333334a25.6 25.6 0 0 1-4.138666-50.858667L328.533333 486.4h341.333334zM358.357333 196.224L256 196.266667A59.733333 59.733333 0 0 0 196.266667 256l-0.042667 59.690667h631.466667L827.733333 256a59.733333 59.733333 0 0 0-53.973333-59.477333L768 196.266667l-102.442667-0.042667L665.6 213.333333a25.6 25.6 0 0 1-50.858667 4.138667L614.4 213.333333l-0.042667-17.109333h-204.8L409.6 213.333333a25.6 25.6 0 0 1-50.858667 4.138667L358.4 213.333333l-0.042667-17.109333z"  /></svg>