<?xml version="1.0" standalone="no"?><!DOCTYPE svg PUBLIC "-//W3C//DTD SVG 1.1//EN" "http://www.w3.org/Graphics/SVG/1.1/DTD/svg11.dtd"><svg class="icon" width="200px" height="200.00px" viewBox="0 0 1024 1024" version="1.1" xmlns="http://www.w3.org/2000/svg"><path d="M511.616 102.4l-11.306667 0.170667A409.6 409.6 0 1 0 921.6 512l-0.341333-4.138667A25.6 25.6 0 0 0 896 486.4h-358.4V128a25.6 25.6 0 0 0-25.984-25.6zM486.4 154.496V512l0.341333 4.138667A25.6 25.6 0 0 0 512 537.6h357.418667l-0.426667 6.4a358.4 358.4 0 1 1-388.906667-388.992l6.314667-0.512z"  /><path d="M618.666667 280.32a25.6 25.6 0 0 1 25.258666 21.418667l0.341334 4.181333v128a25.6 25.6 0 0 1-50.858667 4.138667l-0.341333-4.138667v-128a25.6 25.6 0 0 1 25.6-25.6zM735.232 237.653333a25.6 25.6 0 0 1 25.301333 21.418667l0.298667 4.181333v170.666667a25.6 25.6 0 0 1-50.858667 4.138667l-0.341333-4.138667v-170.666667a25.6 25.6 0 0 1 25.6-25.6zM853.333333 152.32a25.6 25.6 0 0 1 25.258667 21.418667l0.341333 4.181333v256a25.6 25.6 0 0 1-50.858666 4.138667l-0.341334-4.138667v-256a25.6 25.6 0 0 1 25.6-25.6z"  /></svg>