<?xml version="1.0" standalone="no"?><!DOCTYPE svg PUBLIC "-//W3C//DTD SVG 1.1//EN" "http://www.w3.org/Graphics/SVG/1.1/DTD/svg11.dtd"><svg class="icon" width="200px" height="200.00px" viewBox="0 0 1024 1024" version="1.1" xmlns="http://www.w3.org/2000/svg"><path d="M521.472 144.554667L512 144.213333c-32.085333 0-64.128 11.52-86.698667 34.090667l-293.376 288.554667c-28.672 28.629333-34.346667 53.034667-28.032 83.370666l2.688 11.392c6.058667 20.096 33.493333 40.064 64.512 42.837334l7.765334 0.426666 19.2-0.085333v198.997333c0 59.434667 47.36 115.584 108.458666 120.32l7.594667 0.298667h89.770667c32.682667 0 58.752-21.333333 62.549333-51.626667l0.426667-5.930666v-197.802667c0-8.96 7.253333-16.896 16.213333-17.92l3.242667-0.128 75.946666 0.042667c-1.322667 0-1.28 0.384-1.194666 0.213333l-0.085334 214.101333c0 30.890667 23.210667 55.253333 55.253334 58.624l6.485333 0.426667h78.506667c64.853333 0 120.106667-49.066667 124.416-112.554667l0.298666-7.210666v-199.850667l18.133334 0.042667c36.266667 0 65.834667-20.736 73.130666-42.496l1.877334-7.296c7.296-29.696 3.754667-53.888-20.821334-81.621334l-5.589333-5.930666-294.058667-289.28c-20.992-20.992-46.805333-31.914667-77.184-33.749334zM512 193.024l7.296 0.256c18.090667 1.066667 32.597333 7.168 45.013333 19.584l293.546667 288.853333 4.48 4.693334c10.666667 12.117333 12.8 19.712 10.496 32.042666l-2.645333 11.264c0.213333-1.152-10.538667 6.4-26.112 6.4h-42.496a24.362667 24.362667 0 0 0-24.405334 24.405334v223.317333l-0.170666 5.546667c-2.56 36.522667-36.010667 66.304-75.818667 66.304h-77.226667l-3.925333-0.256c-6.485333-0.682667-10.282667-4.693333-10.282667-10.026667V649.813333l-0.469333-5.802666c-4.48-23.893333-24.746667-41.728-47.061333-41.728h-77.226667l-5.973333 0.298666c-34.858667 3.84-60.885333 32.554667-60.885334 66.474667v196.266667l-0.256 2.901333c-0.469333 3.626667-5.12 7.424-13.994666 7.424H315.050667l-5.717334-0.256c-33.706667-2.645333-62.506667-36.693333-62.506666-71.594667v-223.317333a24.362667 24.362667 0 0 0-24.405334-24.405333h-42.496l-5.589333-0.256a35.114667 35.114667 0 0 1-15.488-5.205334l-3.84-2.773333c-0.554667-0.128-0.853333 0.810667-0.853333 5.717333l-0.810667-5.973333-0.682667-2.816c-4.608-18.218667-3.242667-26.453333 13.653334-43.264l293.248-288.597333c12.928-12.928 32.469333-19.968 52.394666-19.968H512z"  /></svg>