<?xml version="1.0" standalone="no"?><!DOCTYPE svg PUBLIC "-//W3C//DTD SVG 1.1//EN" "http://www.w3.org/Graphics/SVG/1.1/DTD/svg11.dtd"><svg class="icon" width="200px" height="200.00px" viewBox="0 0 1024 1024" version="1.1" xmlns="http://www.w3.org/2000/svg"><path d="M260.266667 512V149.333333c0-12.8-12.8-25.6-25.6-25.6s-25.6 12.8-25.6 25.6V512c-59.733333 12.8-106.666667 64-106.666667 128s46.933333 119.466667 106.666667 128v106.666667c0 12.8 12.8 25.6 25.6 25.6s25.6-12.8 25.6-25.6V768c59.733333-12.8 106.666667-64 106.666666-128s-46.933333-119.466667-106.666666-128z m-25.6 209.066667c-42.666667 0-81.066667-38.4-81.066667-81.066667s38.4-81.066667 81.066667-81.066667 81.066667 38.4 81.066666 81.066667-38.4 81.066667-81.066666 81.066667zM921.6 640c0-64-46.933333-119.466667-106.666667-128V149.333333c0-12.8-12.8-25.6-25.6-25.6s-25.6 12.8-25.6 25.6V512c-59.733333 12.8-106.666667 64-106.666666 128s46.933333 119.466667 106.666666 128v106.666667c0 12.8 12.8 25.6 25.6 25.6s25.6-12.8 25.6-25.6V768c59.733333-8.533333 106.666667-64 106.666667-128z m-132.266667 81.066667c-42.666667 0-81.066667-38.4-81.066666-81.066667s38.4-81.066667 81.066666-81.066667 81.066667 38.4 81.066667 81.066667-38.4 81.066667-81.066667 81.066667zM665.6 384c0-64-46.933333-119.466667-106.666667-128V149.333333c0-12.8-12.8-25.6-25.6-25.6s-25.6 12.8-25.6 25.6V256c-59.733333 12.8-106.666667 64-106.666666 128s46.933333 119.466667 106.666666 128v362.666667c0 12.8 12.8 25.6 25.6 25.6s25.6-12.8 25.6-25.6V512c59.733333-8.533333 106.666667-64 106.666667-128z m-132.266667 81.066667c-42.666667 0-81.066667-38.4-81.066666-81.066667s38.4-81.066667 81.066666-81.066667 81.066667 38.4 81.066667 81.066667-38.4 81.066667-81.066667 81.066667z"  /></svg>