<?xml version="1.0" standalone="no"?><!DOCTYPE svg PUBLIC "-//W3C//DTD SVG 1.1//EN" "http://www.w3.org/Graphics/SVG/1.1/DTD/svg11.dtd"><svg class="icon" width="200px" height="200.00px" viewBox="0 0 1024 1024" version="1.1" xmlns="http://www.w3.org/2000/svg"><path d="M527.914667 922.154667c-21.333333 0-42.666667-4.266667-68.266667-17.066667-17.066667-8.533333-76.8-38.4-115.2-59.733333l-34.133333-17.066667c-8.533333-4.266667-17.066667-4.266667-21.333334-4.266667-4.266667 0-8.533333 0-21.333333 8.533334l-51.2 34.133333c-4.266667 0-4.266667 4.266667-8.533333 4.266667h-4.266667c-4.266667 0-8.533333-4.266667-8.533333-8.533334l-98.133334-213.333333c-4.266667-8.533333 0-12.8 8.533334-17.066667l12.8-4.266666s93.866667-42.666667 136.533333-59.733334c21.333333-8.533333 42.666667-12.8 64-12.8 38.4 0 64 17.066667 89.6 34.133334l4.266667 4.266666c12.8 8.533333 51.2 38.4 68.266666 46.933334 4.266667 4.266667 17.066667 8.533333 34.133334 17.066666 4.266667 0 8.533333-4.266667 8.533333-8.533333l4.266667-4.266667c17.066667-8.533333 21.333333-12.8 21.333333-12.8 12.8-4.266667 25.6-17.066667 46.933333-29.866666 21.333333-12.8 51.2-29.866667 76.8-29.866667 12.8 0 29.866667 4.266667 38.4 12.8 17.066667-8.533333 34.133333-12.8 55.466667-12.8s38.4 8.533333 46.933333 21.333333v4.266667c12.8-4.266667 25.6-8.533333 38.4-8.533333 21.333333 0 42.666667 8.533333 55.466667 25.6 8.533333 12.8 12.8 25.6 12.8 42.666666-4.266667 21.333333-17.066667 38.4-46.933333 59.733334-21.333333 17.066667-230.4 153.6-260.266667 170.666666-4.266667 4.266667-8.533333 4.266667-12.8 8.533334-12.8 12.8-38.4 25.6-72.533333 25.6z m-238.933334-153.6c12.8 0 29.866667 4.266667 46.933334 12.8l34.133333 17.066666c38.4 21.333333 93.866667 46.933333 110.933333 55.466667 17.066667 8.533333 34.133333 12.8 46.933334 12.8 21.333333 0 34.133333-8.533333 51.2-21.333333 4.266667-4.266667 8.533333-4.266667 12.8-8.533334 29.866667-17.066667 234.666667-153.6 256-166.4 21.333333-17.066667 25.6-25.6 25.6-25.6v-4.266666c0-4.266667-4.266667-4.266667-12.8-4.266667-8.533333 0-21.333333 4.266667-42.666667 17.066667l-25.6 12.8h-8.533333c-4.266667 0-4.266667 0-8.533334-4.266667s-8.533333-8.533333-4.266666-12.8l4.266666-29.866667s-4.266667-4.266667-8.533333-4.266666c-17.066667 0-29.866667 4.266667-38.4 12.8l-8.533333 8.533333c-4.266667 17.066667-8.533333 17.066667-8.533334 17.066667-4.266667 0-8.533333-4.266667-8.533333-4.266667l-8.533333-12.8c-8.533333-8.533333-12.8-12.8-17.066667-12.8-8.533333 0-25.6 8.533333-46.933333 21.333333-8.533333 4.266667-17.066667 12.8-29.866667 17.066667 25.6 0 42.666667 4.266667 55.466667 12.8 25.6 8.533333 38.4 29.866667 38.4 55.466667 0 17.066667-8.533333 34.133333-25.6 42.666666-17.066667 8.533333-34.133333 12.8-51.2 12.8h-128c-46.933333 0-106.666667-25.6-115.2-25.6-4.266667 0-4.266667-4.266667-8.533334-8.533333v-8.533333l8.533334-21.333334c0-4.266667 4.266667-4.266667 8.533333-8.533333h8.533333s55.466667 21.333333 93.866667 21.333333h128c8.533333 0 21.333333-4.266667 25.6-4.266666 0-4.266667 0-4.266667-4.266667-4.266667-8.533333-4.266667-21.333333-8.533333-64-8.533333-55.466667 0-110.933333-29.866667-119.466666-34.133334l-4.266667-4.266666c-12.8-8.533333-51.2-38.4-64-42.666667l-4.266667-4.266667c-21.333333-12.8-38.4-25.6-64-25.6-12.8 0-25.6 4.266667-42.666666 8.533334-29.866667 12.8-85.333333 38.4-110.933334 46.933333l64 136.533333 17.066667-12.8c12.8-8.533333 29.866667-17.066667 46.933333-17.066666z"  /><path d="M515.114667 614.912c-12.8 0-29.866667-8.533333-38.4-17.066667-25.6-29.866667-59.733333-59.733333-93.866667-85.333333-38.4-29.866667-81.066667-64-110.933333-102.4-34.133333-42.666667-51.2-89.6-51.2-136.533333 0-51.2 17.066667-93.866667 46.933333-123.733334 34.133333-34.133333 81.066667-51.2 128-51.2 38.4 0 81.066667 17.066667 119.466667 51.2 38.4-34.133333 76.8-51.2 115.2-51.2 51.2 0 93.866667 17.066667 123.733333 46.933334 29.866667 29.866667 46.933333 76.8 46.933333 123.733333 0 46.933333-17.066667 93.866667-51.2 136.533333-29.866667 38.4-68.266667 68.266667-106.666666 102.4-34.133333 25.6-68.266667 55.466667-93.866667 85.333334-4.266667 17.066667-21.333333 21.333333-34.133333 21.333333z m-119.466667-465.066667c-72.533333 0-123.733333 51.2-123.733333 123.733334 0 85.333333 72.533333 140.8 140.8 196.266666 34.133333 29.866667 72.533333 59.733333 102.4 93.866667 29.866667-34.133333 64-64 102.4-93.866667 68.266667-55.466667 140.8-115.2 140.8-196.266666 0-72.533333-51.2-123.733333-123.733334-123.733334-42.666667 0-81.066667 34.133333-98.133333 51.2l-12.8 12.8c-4.266667 4.266667-4.266667 4.266667-8.533333 4.266667s-8.533333 0-8.533334-4.266667l-8.533333-8.533333c-21.333333-21.333333-59.733333-55.466667-102.4-55.466667z"  /></svg>