<?xml version="1.0" standalone="no"?><!DOCTYPE svg PUBLIC "-//W3C//DTD SVG 1.1//EN" "http://www.w3.org/Graphics/SVG/1.1/DTD/svg11.dtd"><svg class="icon" width="200px" height="200.00px" viewBox="0 0 1024 1024" version="1.1" xmlns="http://www.w3.org/2000/svg"><path d="M848 102.4c38.528 0 70.101333 29.568 73.344 67.242667l0.256 6.357333v672c0 38.528-29.568 70.101333-67.242667 73.344l-6.357333 0.256H368a73.6 73.6 0 0 1-73.344-67.242667l-0.256-6.357333V176a25.6 25.6 0 0 1 10.496-20.650667l2.688-1.749333H224a25.6 25.6 0 0 1-25.258667-21.461333L198.4 128a25.6 25.6 0 0 1 21.461333-25.258667L224 102.4h624zM335.146667 155.306667a25.6 25.6 0 0 1 10.112 16.554666l0.341333 4.138667v672c0 11.008 7.936 20.138667 18.346667 22.058667l4.053333 0.341333h480a22.4 22.4 0 0 0 22.058667-18.346667l0.341333-4.053333V176a22.4 22.4 0 0 0-18.346667-22.058667l-4.053333-0.341333H332.373333l2.730667 1.706667z"  /><path d="M224 102.4A121.6 121.6 0 0 0 102.4 224V661.333333A68.266667 68.266667 0 0 0 170.666667 729.6h149.333333a25.6 25.6 0 0 0 25.6-25.6V224A121.6 121.6 0 0 0 224 102.4z m6.058667 51.456A70.4 70.4 0 0 1 294.4 224V678.4H170.666667a17.066667 17.066667 0 0 1-17.066667-17.066667V224c0-38.869333 31.530667-70.4 70.4-70.4l6.058667 0.256zM752 414.421333a25.6 25.6 0 0 1 4.138667 50.858667l-4.138667 0.341333h-288a25.6 25.6 0 0 1-4.138667-50.901333l4.138667-0.341333h288zM752 606.421333a25.6 25.6 0 0 1 4.138667 50.858667l-4.138667 0.341333h-288a25.6 25.6 0 0 1-4.138667-50.901333l4.138667-0.341333h288z"  /></svg>