<?xml version="1.0" standalone="no"?><!DOCTYPE svg PUBLIC "-//W3C//DTD SVG 1.1//EN" "http://www.w3.org/Graphics/SVG/1.1/DTD/svg11.dtd"><svg class="icon" width="200px" height="200.00px" viewBox="0 0 1024 1024" version="1.1" xmlns="http://www.w3.org/2000/svg"><path d="M339.242667 541.952a25.6 25.6 0 1 1-36.266667-36.181333l148.224-148.565334a25.6 25.6 0 0 1 36.266667 0l93.482666 94.122667 193.706667-197.12a25.6 25.6 0 1 1 36.522667 35.84l-211.84 215.68a25.6 25.6 0 0 1-36.437334 0.085333L469.333333 411.562667l-130.048 130.389333z"  /><path d="M219.178667 804.394667h688.213333a25.6 25.6 0 1 1 0 51.2H193.621333a25.6 25.6 0 0 1-25.6-25.6V238.421333a25.6 25.6 0 0 1 51.2 0v565.973334z"  /><path d="M337.066667 640a25.6 25.6 0 1 1 51.2 0v178.944a25.6 25.6 0 0 1-51.2 0V640zM477.866667 544a25.6 25.6 0 1 1 51.2 0v274.944a25.6 25.6 0 0 1-51.2 0v-274.901333zM635.733333 584.917333a25.6 25.6 0 0 1 51.2 0v234.026667a25.6 25.6 0 0 1-51.2 0V584.96zM772.266667 503.893333a25.6 25.6 0 0 1 51.2 0v315.050667a25.6 25.6 0 0 1-51.2 0V503.893333zM788.394667 280.661333h-107.690667a21.333333 21.333333 0 1 1 0-42.666666h129.024a21.333333 21.333333 0 0 1 21.333333 21.333333V393.813333a21.333333 21.333333 0 1 1-42.666666 0V280.661333z"  /></svg>