<?xml version="1.0" standalone="no"?><!DOCTYPE svg PUBLIC "-//W3C//DTD SVG 1.1//EN" "http://www.w3.org/Graphics/SVG/1.1/DTD/svg11.dtd"><svg t="1619582256084" class="icon" viewBox="0 0 1024 1024" version="1.1" xmlns="http://www.w3.org/2000/svg" p-id="21907" xmlns:xlink="http://www.w3.org/1999/xlink" width="200" height="200"><defs><style type="text/css"></style></defs><path d="M423.765333 137.301333a25.6 25.6 0 0 1-16.981333 32 358.4 358.4 0 1 0 443.477333 461.482667 25.6 25.6 0 0 1 48.298667 16.938667A409.6 409.6 0 1 1 391.765333 120.362667a25.6 25.6 0 0 1 32 16.938666zM512 102.4c221.738667 0 403.029333 176.426667 409.429333 397.909333l0.170667 11.306667a25.6 25.6 0 0 1-25.6 25.984h-384a25.6 25.6 0 0 1-25.6-25.6V128a25.6 25.6 0 0 1 25.6-25.6z m25.6 52.138667V486.4h331.861333l-0.426666-6.314667a358.485333 358.485333 0 0 0-325.034667-325.077333l-6.4-0.469333z" p-id="21908"></path></svg>