<?xml version="1.0" standalone="no"?><!DOCTYPE svg PUBLIC "-//W3C//DTD SVG 1.1//EN" "http://www.w3.org/Graphics/SVG/1.1/DTD/svg11.dtd"><svg class="icon" width="200px" height="200.00px" viewBox="0 0 1024 1024" version="1.1" xmlns="http://www.w3.org/2000/svg"><path d="M853.333333 145.066667H170.666667A68.266667 68.266667 0 0 0 102.4 213.333333v469.333334A68.266667 68.266667 0 0 0 170.666667 750.933333h682.666666a68.266667 68.266667 0 0 0 68.266667-68.266666V213.333333A68.266667 68.266667 0 0 0 853.333333 145.066667zM170.666667 196.266667h682.666666c9.386667 0 17.066667 7.68 17.066667 17.066666v469.333334a17.066667 17.066667 0 0 1-17.066667 17.066666H170.666667a17.066667 17.066667 0 0 1-17.066667-17.066666V213.333333c0-9.386667 7.68-17.066667 17.066667-17.066666z"  /><path d="M396.458667 302.250667v181.333333h-37.12V343.850667a71.594667 71.594667 0 0 1-18.602667 10.752c-7.808 3.413333-15.146667 5.376-21.973333 5.888v-31.786667a175.36 175.36 0 0 0 54.229333-26.410667h23.466667z m53.76 95.317333c0-30.762667 5.888-54.229333 17.152-70.4 11.221333-16.085333 27.861333-24.405333 48.853333-24.405333 40.576 0 61.141333 30.293333 61.141333 90.453333 0 29.781333-5.418667 52.778667-16.64 68.906667-11.264 16.128-26.88 24.448-47.914666 24.448-41.557333 0-62.549333-29.354667-62.549334-89.002667z m37.674666-0.469333c0 41.045333 8.789333 61.610667 26.368 61.610666 17.152 0 25.941333-21.034667 25.941334-63.061333 0-42.538667-8.32-63.573333-24.96-63.573333-18.56-0.469333-27.349333 21.504-27.349334 65.024z m107.050667 0.469333c0-30.762667 5.845333-54.229333 17.109333-70.4 11.221333-16.085333 27.861333-24.405333 48.896-24.405333 40.533333 0 61.098667 30.293333 61.098667 90.453333 0 29.781333-5.376 52.778667-16.64 68.906667-11.221333 16.128-26.88 24.448-47.914667 24.448-41.514667 0-62.549333-29.354667-62.549333-89.002667z m37.632-0.469333c0 41.045333 8.789333 61.610667 26.410667 61.610666 17.066667 0 25.898667-21.034667 25.898666-63.061333 0-42.538667-8.32-63.573333-24.917333-63.573333-18.602667-0.469333-27.392 21.504-27.392 65.024zM725.333333 849.066667a25.6 25.6 0 0 1 4.138667 50.858666L725.333333 900.266667H298.666667a25.6 25.6 0 0 1-4.138667-50.858667L298.666667 849.066667h426.666666zM640 550.4a25.6 25.6 0 0 1 4.138667 50.858667L640 601.6H384a25.6 25.6 0 0 1-4.138667-50.858667L384 550.4h256z"  /><path d="M514.048 699.733333a25.6 25.6 0 0 1 25.258667 21.461334l0.341333 4.138666v128a25.6 25.6 0 0 1-50.858667 4.138667L488.448 853.333333v-128a25.6 25.6 0 0 1 25.6-25.6z"  /></svg>