<?xml version="1.0" standalone="no"?><!DOCTYPE svg PUBLIC "-//W3C//DTD SVG 1.1//EN" "http://www.w3.org/Graphics/SVG/1.1/DTD/svg11.dtd"><svg class="icon" width="200px" height="200.00px" viewBox="0 0 1024 1024" version="1.1" xmlns="http://www.w3.org/2000/svg"><path d="M896 102.4a25.6 25.6 0 0 1 23.253333 36.309333l-1.962666 3.498667-134.485334 201.813333a25.6 25.6 0 0 1-44.629333-24.746666l2.005333-3.669334L848.213333 153.6h-157.952l-71.808 107.776a25.6 25.6 0 0 1-31.829333 9.130667l-3.669333-2.005334a25.6 25.6 0 0 1-9.130667-31.872l2.048-3.626666 79.445333-119.210667a25.6 25.6 0 0 1 17.066667-11.050667l4.266667-0.341333H896z m-548.565333 0a25.6 25.6 0 0 1 18.645333 8.106667l2.645333 3.285333 79.488 119.168a25.6 25.6 0 0 1-39.978666 31.701333l-2.56-3.285333L333.696 153.6H175.786667l108.032 162.005333a25.6 25.6 0 0 1-3.84 32.896l-3.285334 2.56a25.6 25.6 0 0 1-32.896-3.797333l-2.56-3.285333L106.666667 142.165333a25.6 25.6 0 0 1 17.322666-39.466666L128 102.4h219.434667zM449.493333 480.768l-97.066666 14.122667-3.584 0.853333a21.333333 21.333333 0 0 0-8.234667 35.541333l70.229333 68.437334-16.597333 96.682666-0.341333 3.413334a21.333333 21.333333 0 0 0 31.274666 19.072L512 673.194667l86.869333 45.653333 3.157334 1.408a21.333333 21.333333 0 0 0 27.776-23.893333l-16.64-96.64 70.272-68.437334 2.432-2.773333a21.333333 21.333333 0 0 0-14.250667-33.621333l-97.109333-14.122667-43.349334-87.893333a21.333333 21.333333 0 0 0-38.229333 0l-43.392 87.893333zM512 450.432l29.226667 59.306667 2.218666 3.541333a21.333333 21.333333 0 0 0 13.866667 8.106667l65.322667 9.472-47.274667 46.165333-2.688 3.157333a21.333333 21.333333 0 0 0-3.413333 15.701334l11.136 65.109333-58.453334-30.72-3.84-1.578667a21.333333 21.333333 0 0 0-16.042666 1.578667l-58.496 30.72 11.221333-65.109333 0.298667-4.138667a21.333333 21.333333 0 0 0-6.442667-14.72l-47.317333-46.165333 65.365333-9.472a21.333333 21.333333 0 0 0 16.085333-11.648l29.226667-59.306667z"  /><path d="M512 212.096A354.730667 354.730667 0 1 0 512 921.6a354.730667 354.730667 0 0 0 0-709.504z m0 51.2A303.530667 303.530667 0 1 1 512 870.4a303.530667 303.530667 0 0 1 0-607.104z"  /></svg>