<?xml version="1.0" standalone="no"?><!DOCTYPE svg PUBLIC "-//W3C//DTD SVG 1.1//EN" "http://www.w3.org/Graphics/SVG/1.1/DTD/svg11.dtd"><svg class="icon" width="200px" height="200.00px" viewBox="0 0 1024 1024" version="1.1" xmlns="http://www.w3.org/2000/svg"><path d="M612.992 113.066667a25.6 25.6 0 0 1 4.138667 50.858666l-4.138667 0.341334H256a59.733333 59.733333 0 0 0-59.477333 53.973333L196.266667 224v554.666667a59.733333 59.733333 0 0 0 53.973333 59.477333L256 838.4h512a59.733333 59.733333 0 0 0 59.477333-53.973333l0.256-5.76V344.576a25.6 25.6 0 0 1 50.858667-4.138667l0.341333 4.138667V778.666667a110.933333 110.933333 0 0 1-103.936 110.72L768 889.6H256a110.933333 110.933333 0 0 1-110.72-103.936L145.066667 778.666667v-554.666667a110.933333 110.933333 0 0 1 103.936-110.72L256 113.066667h356.992z"  /><path d="M845.909333 109.909333a25.6 25.6 0 0 1 39.168 32.64l-2.986666 3.541334-277.333334 277.333333a25.6 25.6 0 0 1-39.168-32.64l2.986667-3.541333 277.333333-277.333334zM477.098667 413.269333a25.6 25.6 0 0 1 4.138666 50.858667l-4.138666 0.341333h-170.666667a25.6 25.6 0 0 1-4.138667-50.901333l4.138667-0.298667h170.666667zM647.765333 582.4a25.6 25.6 0 0 1 4.138667 50.858667l-4.138667 0.341333h-341.333333a25.6 25.6 0 0 1-4.138667-50.858667l4.138667-0.341333h341.333333z"  /></svg>