<?xml version="1.0" standalone="no"?><!DOCTYPE svg PUBLIC "-//W3C//DTD SVG 1.1//EN" "http://www.w3.org/Graphics/SVG/1.1/DTD/svg11.dtd"><svg class="icon" width="200px" height="200.00px" viewBox="0 0 1024 1024" version="1.1" xmlns="http://www.w3.org/2000/svg"><path d="M493.909333 109.909333a25.6 25.6 0 0 1 32.64-2.986666l3.541334 2.986666 192 192a25.6 25.6 0 0 1-32.64 39.168l-3.541334-2.986666L512 164.266667 338.090667 338.090667a25.6 25.6 0 0 1-32.64 2.986666l-3.541334-2.986666a25.6 25.6 0 0 1-2.986666-32.64l2.986666-3.541334 192-192z"  /><path d="M810.666667 294.4H213.333333a110.933333 110.933333 0 0 0-110.933333 110.933333V810.666667A110.933333 110.933333 0 0 0 213.333333 921.6h597.333334a110.933333 110.933333 0 0 0 110.933333-110.933333V405.333333A110.933333 110.933333 0 0 0 810.666667 294.4zM213.333333 345.6h597.333334a59.733333 59.733333 0 0 1 59.733333 59.733333V810.666667a59.733333 59.733333 0 0 1-59.733333 59.733333H213.333333A59.733333 59.733333 0 0 1 153.6 810.666667V405.333333A59.733333 59.733333 0 0 1 213.333333 345.6z"  /><path d="M752 510.421333a25.6 25.6 0 0 1 4.138667 50.858667l-4.138667 0.341333H320a25.6 25.6 0 0 1-4.138667-50.901333l4.138667-0.341333h432zM560 654.421333a25.6 25.6 0 0 1 4.138667 50.858667l-4.138667 0.298667H320a25.6 25.6 0 0 1-4.138667-50.858667l4.138667-0.298667h240z"  /></svg>