<?xml version="1.0" standalone="no"?><!DOCTYPE svg PUBLIC "-//W3C//DTD SVG 1.1//EN" "http://www.w3.org/Graphics/SVG/1.1/DTD/svg11.dtd"><svg class="icon" width="200px" height="200.00px" viewBox="0 0 1024 1024" version="1.1" xmlns="http://www.w3.org/2000/svg"><path d="M502.144 105.088l-342.869333 170.666667a25.6 25.6 0 0 0-14.208 23.04c1.365333 322.56 122.410667 531.584 362.581333 621.226666a25.6 25.6 0 0 0 18.005333-0.085333c236.757333-89.685333 354.645333-298.794667 353.28-621.397333a25.6 25.6 0 0 0-14.08-22.741334l-339.84-170.666666a25.6 25.6 0 0 0-22.869333-0.042667z m11.306667 51.541333l314.197333 157.781334v1.706666c-2.688 281.045333-101.12 461.397333-295.594667 545.962667l-15.530666 6.442667-3.456-1.322667c-201.813333-80.64-307.029333-256.981333-316.16-533.845333l-0.469334-18.944 317.013334-157.781334z"  /><path d="M512 315.733333a153.6 153.6 0 1 0 0 307.2 153.6 153.6 0 0 0 0-307.2z m0 51.2a102.4 102.4 0 1 1 0 204.8 102.4 102.4 0 0 1 0-204.8z"  /><path d="M600.746667 550.144a25.6 25.6 0 0 1 32.768-1.749333l3.413333 3.072 85.845333 92.458666a25.6 25.6 0 0 1-34.133333 37.930667l-3.413333-3.114667-85.802667-92.416a25.6 25.6 0 0 1 1.322667-36.181333z"  /></svg>