<?xml version="1.0" standalone="no"?><!DOCTYPE svg PUBLIC "-//W3C//DTD SVG 1.1//EN" "http://www.w3.org/Graphics/SVG/1.1/DTD/svg11.dtd"><svg class="icon" width="200px" height="200.00px" viewBox="0 0 1024 1024" version="1.1" xmlns="http://www.w3.org/2000/svg"><path d="M517.376 365.098667c-79.530667 1.493333-146.005333 66.389333-144.512 145.493333 1.493333 79.530667 66.346667 146.048 145.493333 144.554667a146.517333 146.517333 0 0 0 144.512-144.512c-1.408-77.824-62.08-142.592-137.6-145.493334h-7.893333z m0.981333 51.2c50.133333-0.938667 92.373333 42.368 93.312 94.293333a95.146667 95.146667 0 0 1-94.293333 93.354667c-50.090667 0.938667-92.373333-42.368-93.354667-94.293334-0.853333-47.957333 38.698667-88.704 87.594667-93.013333l6.741333-0.341333z"  /><path d="M609.877333 117.717333a42.026667 42.026667 0 0 0-30.293333 32.682667l-1.109333 3.626667c-3.456 9.386667-27.349333 17.792-56.917334 18.346666-28.544 0.554667-54.613333-9.898667-57.088-21.973333L462.933333 145.066667c-6.528-17.28-19.84-26.88-35.029333-28.672l-6.698667-0.384c-9.045333 0.213333-15.914667 2.133333-22.314666 5.632L248.405333 203.818667l-1.066666 0.384a40.533333 40.533333 0 0 0-6.4 4.096l-3.669334 2.901333a42.026667 42.026667 0 0 0-12.928 21.205333l-0.981333 5.034667c-3.072 10.453333 0.170667 24.064 9.472 34.901333l7.04 7.296c6.997333 8.448 0.938667 35.754667-15.36 62.890667-13.568 22.442667-34.133333 37.546667-44.629333 34.048l-5.205334-1.365333c-17.578667-2.944-32.213333 3.072-41.6 14.592l-4.053333 5.589333a46.336 46.336 0 0 0-7.082667 23.424l-4.138666 174.165333 0.213333 5.674667c1.749333 12.885333 6.997333 22.186667 15.061333 28.8l0.298667 0.426667c11.093333 9.344 23.893333 12.586667 36.821333 10.026666l9.130667-2.304c8.661333-1.450667 26.581333 12.928 41.514667 35.712 16.725333 25.514667 22.186667 55.936 12.202666 64.896l-4.181333 4.266667c-10.666667 13.568-12.714667 28.501333-7.936 41.813333l2.858667 6.656c4.693333 8.618667 10.154667 14.165333 16.938666 18.304l148.821334 90.752 4.906666 2.56c11.605333 4.778667 21.888 5.12 31.402667 1.962667l0.768-0.128a42.453333 42.453333 0 0 0 28.202667-27.52l2.432-8.704c3.413333-9.301333 27.306667-17.749333 56.96-18.346667 28.501333-0.512 54.570667 9.941333 57.045333 22.016l1.450667 5.333334c6.570667 17.237333 19.882667 26.88 35.072 28.629333l6.698666 0.426667c9.045333-0.213333 15.914667-2.133333 22.314667-5.632l153.002667-83.541334 5.12-3.242666c10.666667-8.533333 16.085333-18.346667 17.450666-29.141334l0.298667-1.450666a43.093333 43.093333 0 0 0-10.496-34.133334l-6.314667-6.485333c-6.997333-8.490667-0.981333-35.797333 15.36-62.890667 13.568-22.485333 34.133333-37.546667 44.629334-34.090666l5.205333 1.365333c17.621333 2.986667 32.341333-3.114667 41.685333-14.677333l4.053334-5.674667c4.821333-8.234667 6.826667-15.530667 6.997333-23.210667l4.138667-174.208-0.128-4.949333a43.605333 43.605333 0 0 0-11.349334-26.026667l-4.565333-4.309333a42.581333 42.581333 0 0 0-41.856-8.106667l-3.626667 0.810667c-8.661333 1.450667-26.581333-12.928-41.514666-35.712-16.725333-25.514667-22.186667-55.936-12.202667-64.853333l4.138667-4.352c10.666667-13.482667 12.714667-28.416 8.021333-41.685334l-2.090667-4.864c-2.090667-6.613333-8.661333-14.677333-17.749333-20.181333l-148.821333-90.752c-11.392-6.912-24.32-8.533333-36.309334-4.522667zM416.853333 170.154667l1.706667 4.565333c14.634667 34.048 58.538667 49.706667 103.936 48.853333l8.576-0.298666c42.538667-2.304 78.336-15.786667 93.354667-47.061334l2.432-5.802666 134.912 82.261333-3.328 4.053333c-23.253333 31.317333-12.672 80.128 13.653333 120.277334l4.778667 7.04c22.826667 32.256 50.858667 53.76 83.2 51.498666l6.528-0.853333-3.84 157.909333-4.949334-0.853333c-34.56-3.882667-68.48 23.125333-90.453333 59.52l-4.266667 7.424c-22.101333 39.68-30.208 80.128-9.472 110.549333l3.882667 5.205334-138.666667 75.605333-1.706666-4.565333c-14.634667-34.005333-58.496-49.664-103.893334-48.810667l-8.576 0.298667c-42.538667 2.304-78.336 15.786667-93.397333 47.018666l-2.474667 5.845334-134.826666-82.304 3.328-4.010667c23.253333-31.317333 12.672-80.128-13.653334-120.277333l-4.778666-7.082667c-22.826667-32.213333-50.858667-53.76-83.2-51.456l-6.570667 0.768 3.84-157.909333 4.949333 0.853333c34.602667 3.968 68.522667-23.04 90.453334-59.477333l4.309333-7.424c22.101333-39.637333 30.208-80.085333 9.472-110.506667l-4.053333-5.333333 138.794666-75.52z"  /></svg>