<?xml version="1.0" standalone="no"?><!DOCTYPE svg PUBLIC "-//W3C//DTD SVG 1.1//EN" "http://www.w3.org/Graphics/SVG/1.1/DTD/svg11.dtd"><svg class="icon" width="200px" height="200.00px" viewBox="0 0 1024 1024" version="1.1" xmlns="http://www.w3.org/2000/svg"><path d="M512 840.533333c-4.266667 0-8.533333 0-12.8-4.266666C324.266667 725.333333 217.6 635.733333 170.666667 554.666667c-81.066667-128-59.733333-260.266667 0-320 68.266667-68.266667 179.2-68.266667 247.466666 0l89.6 85.333333 89.6-85.333333c68.266667-68.266667 179.2-68.266667 247.466667 0 68.266667 68.266667 93.866667 200.533333 4.266667 324.266666-55.466667 76.8-162.133333 170.666667-324.266667 277.333334-4.266667 4.266667-8.533333 4.266667-12.8 4.266666zM298.666667 234.666667c-34.133333 0-64 12.8-89.6 34.133333-46.933333 46.933333-64 153.6 4.266666 256 42.666667 68.266667 145.066667 153.6 298.666667 256 149.333333-102.4 247.466667-187.733333 298.666667-256 72.533333-98.133333 55.466667-204.8 4.266666-256-46.933333-46.933333-128-46.933333-179.2 0l-106.666666 102.4c-12.8 12.8-25.6 12.8-38.4 4.266667L384 268.8c-21.333333-21.333333-55.466667-34.133333-85.333333-34.133333z"  /><path d="M268.8 435.2c-17.066667 0-25.6-8.533333-25.6-25.6 0-59.733333 46.933333-106.666667 106.666667-106.666667 12.8 0 25.6 12.8 25.6 25.6s-12.8 25.6-25.6 25.6c-29.866667 0-55.466667 25.6-55.466667 55.466667 0 17.066667-12.8 25.6-25.6 25.6z"  /></svg>