<?xml version="1.0" standalone="no"?><!DOCTYPE svg PUBLIC "-//W3C//DTD SVG 1.1//EN" "http://www.w3.org/Graphics/SVG/1.1/DTD/svg11.dtd"><svg class="icon" width="200px" height="200.00px" viewBox="0 0 1024 1024" version="1.1" xmlns="http://www.w3.org/2000/svg"><path d="M872.021333 560h-24.021333V151.978667c0-14.378667-9.6-23.978667-24.021333-23.978667H344.021333c-14.378667 0-23.978667 9.6-23.978666 24.021333V224H199.978667c-14.378667 0-23.978667 9.6-23.978667 24.021333v311.978667h-24.021333c-14.378667 0-23.978667 9.6-23.978667 24.021333v288c0 14.378667 9.6 23.978667 24.021333 23.978667h720c14.378667 0 23.978667-9.6 23.978667-24.021333v-288c0-14.378667-9.6-23.978667-24.021333-23.978667z m-72.021333-384v384h-182.4c-9.6 0-19.2 9.6-19.2 24.021333v71.978667h-168.021333v-72.021333c0-14.378667-14.378667-23.978667-23.978667-23.978667h-38.4v-384H800z m-576 96H320v288H224v-288z m624 576H176V608h206.421333v72.021333c0 14.378667 9.6 23.978667 23.978667 23.978667h216.021333c14.378667 0 23.978667-9.6 23.978667-24.021333V608h201.6v240zM439.978667 320h288c14.421333 0 24.021333-9.6 24.021333-24.021333 0-14.378667-9.6-23.978667-24.021333-23.978667h-288c-14.378667 0-23.978667 9.6-23.978667 24.021333 0 14.378667 9.6 23.978667 24.021333 23.978667z m0 144h288c14.421333 0 24.021333-9.6 24.021333-24.021333 0-14.378667-9.6-23.978667-24.021333-23.978667h-288c-14.378667 0-23.978667 9.6-23.978667 24.021333 0 14.378667 9.6 23.978667 24.021333 23.978667z"  /></svg>