<?xml version="1.0" standalone="no"?><!DOCTYPE svg PUBLIC "-//W3C//DTD SVG 1.1//EN" "http://www.w3.org/Graphics/SVG/1.1/DTD/svg11.dtd"><svg class="icon" width="200px" height="200.00px" viewBox="0 0 1024 1024" version="1.1" xmlns="http://www.w3.org/2000/svg"><path d="M512 273.066667A324.266667 324.266667 0 0 0 187.733333 597.333333v238.933334h648.533334V597.333333A324.266667 324.266667 0 0 0 512 273.066667z m9.813333 51.370666A273.066667 273.066667 0 0 1 785.066667 597.333333v187.733334H238.933333V597.333333A273.066667 273.066667 0 0 1 512 324.266667l9.813333 0.170666zM810.666667 891.733333a25.6 25.6 0 0 1 4.138666 50.858667L810.666667 942.933333H213.333333a25.6 25.6 0 0 1-4.138666-50.858666L213.333333 891.733333h597.333334zM512 102.4a25.6 25.6 0 0 1 25.258667 21.461333L537.6 128v85.333333a25.6 25.6 0 0 1-50.858667 4.138667L486.4 213.333333V128a25.6 25.6 0 0 1 25.6-25.6z"  /><path d="M861.525333 253.013333a25.6 25.6 0 0 1 2.688 32.981334l-2.688 3.2-60.330666 60.330666a25.6 25.6 0 0 1-38.912-33.024l2.688-3.157333 60.373333-60.373333a25.6 25.6 0 0 1 36.181333 0zM167.68 253.013333a25.6 25.6 0 0 0-2.730667 32.981334l2.688 3.2 60.373334 60.330666a25.6 25.6 0 0 0 38.869333-33.024l-2.688-3.157333-60.330667-60.373333a25.6 25.6 0 0 0-36.224 0zM324.266667 640.64a25.6 25.6 0 0 1 25.216 21.418667l0.341333 4.181333V810.666667a25.6 25.6 0 0 1-50.858667 4.138666L298.666667 810.666667v-144.426667a25.6 25.6 0 0 1 25.6-25.6z"  /></svg>