<?xml version="1.0" standalone="no"?><!DOCTYPE svg PUBLIC "-//W3C//DTD SVG 1.1//EN" "http://www.w3.org/Graphics/SVG/1.1/DTD/svg11.dtd"><svg class="icon" width="200px" height="200.00px" viewBox="0 0 1024 1024" version="1.1" xmlns="http://www.w3.org/2000/svg"><path d="M597.333333 537.6a196.266667 196.266667 0 1 1 0-392.533333 196.266667 196.266667 0 0 1 0 392.533333z m0-51.2a145.066667 145.066667 0 1 0 0-290.133333 145.066667 145.066667 0 0 0 0 290.133333z"  /><path d="M384 145.066667a25.6 25.6 0 1 1 0 51.2 145.066667 145.066667 0 1 0 0 290.133333 25.6 25.6 0 1 1 0 51.2 196.266667 196.266667 0 1 1 0-392.533333zM582.570667 488.106667a25.6 25.6 0 0 1 13.013333 49.493333c-189.013333 49.664-276.650667 152.96-269.738667 314.368a25.6 25.6 0 1 1-51.114666 2.218667c-8.064-187.050667 96.853333-310.613333 307.84-366.08z"  /><path d="M380.544 490.538667a25.6 25.6 0 1 1 11.093333 49.962666c-157.269333 35.029333-228.864 119.765333-221.738666 259.712a25.6 25.6 0 1 1-51.157334 2.602667c-8.448-166.058667 81.152-272.042667 261.802667-312.32zM621.226667 536.618667a25.6 25.6 0 1 1 13.184-49.493334c201.6 53.717333 305.322667 175.274667 305.322666 360.362667a25.6 25.6 0 1 1-51.2 0c0-160.725333-87.168-262.912-267.306666-310.869333z"  /></svg>