<?xml version="1.0" standalone="no"?><!DOCTYPE svg PUBLIC "-//W3C//DTD SVG 1.1//EN" "http://www.w3.org/Graphics/SVG/1.1/DTD/svg11.dtd"><svg class="icon" width="200px" height="200.00px" viewBox="0 0 1024 1024" version="1.1" xmlns="http://www.w3.org/2000/svg"><path d="M768 145.066667H256A110.933333 110.933333 0 0 0 145.066667 256v554.666667A110.933333 110.933333 0 0 0 256 921.6h512a110.933333 110.933333 0 0 0 110.933333-110.933333V256A110.933333 110.933333 0 0 0 768 145.066667zM256 196.266667h512A59.733333 59.733333 0 0 1 827.733333 256v554.666667a59.733333 59.733333 0 0 1-59.733333 59.733333H256A59.733333 59.733333 0 0 1 196.266667 810.666667V256A59.733333 59.733333 0 0 1 256 196.266667z"  /><path d="M827.733333 315.733333a25.6 25.6 0 0 1 4.138667 50.858667L827.733333 366.933333H170.666667a25.6 25.6 0 0 1-4.138667-50.858666L170.666667 315.733333h657.066666zM349.909333 555.52a25.6 25.6 0 0 1 33.152 0.768l2.858667 2.986667 97.450667 120.064 220.757333-200.106667a25.6 25.6 0 0 1 33.109333-1.066667l3.029334 2.858667a25.6 25.6 0 0 1 1.109333 33.109333l-2.858667 3.072-240.725333 218.24a25.6 25.6 0 0 1-34.389333 0l-2.688-2.816-114.517334-141.056a25.6 25.6 0 0 1 3.712-36.010666zM384 102.4a25.6 25.6 0 0 1 25.258667 21.461333L409.6 128v85.333333a25.6 25.6 0 0 1-50.858667 4.138667L358.4 213.333333V128a25.6 25.6 0 0 1 25.6-25.6zM640 102.4a25.6 25.6 0 0 1 25.258667 21.461333L665.6 128v85.333333a25.6 25.6 0 0 1-50.858667 4.138667L614.4 213.333333V128a25.6 25.6 0 0 1 25.6-25.6z"  /></svg>